<svg width="72" height="72" xmlns="http://www.w3.org/2000/svg" xml:space="preserve" version="1.1">

 <g>
  <title>Layer 1</title>
  <g stroke="null" id="svg_1">
   <path stroke="null" id="svg_2" d="m29.02094,36.86925l-4.73608,0c-1.30242,0 -2.36804,1.06562 -2.36804,2.36804l0,9.47215c0,1.30242 1.06562,2.36804 2.36804,2.36804l4.73608,0c1.30242,0 2.36804,-1.06562 2.36804,-2.36804l0,-9.47215c0,-1.30242 -1.06562,-2.36804 -2.36804,-2.36804z"/>
   <path stroke="null" id="svg_3" d="m37.30908,30.15981c-1.30242,0 -2.36804,1.06562 -2.36804,2.36804l0,16.1816c0,1.30242 1.06562,2.36804 2.36804,2.36804l4.73608,0c1.30242,0 2.36804,-1.06562 2.36804,-2.36804l0,-16.1816c0,-1.30242 -1.06562,-2.36804 -2.36804,-2.36804l-4.73608,0z"/>
   <path stroke="null" id="svg_4" d="m55.06937,30.15981l-4.73608,0c-1.30242,0 -2.36804,1.06562 -2.36804,2.36804l0,16.1816c0,1.30242 1.06562,2.36804 2.36804,2.36804l4.73608,0c1.30242,0 2.36804,-1.06562 2.36804,-2.36804l0,-16.1816c0,-1.30242 -1.06562,-2.36804 -2.36804,-2.36804z"/>
   <path stroke="null" id="svg_5" d="m14.61538,60.94431l44.16392,0c1.30242,0 2.1707,-1.26295 2.1707,-2.56538l0,-0.78935c0,-1.30242 -0.86828,-2.52591 -2.1707,-2.52591l-38.55956,0c-1.30242,0 -2.24964,-0.90775 -2.24964,-2.24924l0,-38.63889c0,-1.30242 -1.22349,-2.1707 -2.52591,-2.1707l-0.78935,0c-1.34189,0 -2.60484,0.86828 -2.60484,2.1707l0,44.16392c0,1.34189 1.26295,2.60484 2.56538,2.60484z"/>
  </g>
  <g id="svg_6"/>
  <g id="svg_7"/>
  <g id="svg_8"/>
  <g id="svg_9"/>
  <g id="svg_10"/>
  <g id="svg_11"/>
  <g id="svg_12"/>
  <g id="svg_13"/>
  <g id="svg_14"/>
  <g id="svg_15"/>
  <g id="svg_16"/>
  <g id="svg_17"/>
  <g id="svg_18"/>
  <g id="svg_19"/>
  <g id="svg_20"/>
 </g>
</svg>